<?xml version="1.0" encoding="utf-8"?>
<!-- Generator: Adobe Illustrator 18.0.0, SVG Export Plug-In . SVG Version: 6.00 Build 0)  -->
<!DOCTYPE svg PUBLIC "-//W3C//DTD SVG 1.1//EN" "http://www.w3.org/Graphics/SVG/1.1/DTD/svg11.dtd">
<svg version="1.1" id="Layer_1" xmlns="http://www.w3.org/2000/svg" xmlns:xlink="http://www.w3.org/1999/xlink" x="0px" y="0px"
	 viewBox="0 0 106.4 46.4" enable-background="new 0 0 106.4 46.4" xml:space="preserve">
<g>
	<path fill="#FFFFFF" d="M23.1,44.8c-1.8,0-4.4-1.2-5.6-2.5L2.2,25.3c-1-1.1-1-2.9,0-4L17.6,4c1.2-1.3,3.8-2.5,5.5-2.5h79.3
		c1.4,0,2.5,1.1,2.5,2.5v38.4c0,1.4-1.1,2.5-2.5,2.5H23.1z"/>
	<path d="M102.4,3c0.5,0,1,0.5,1,1v38.4c0,0.5-0.5,1-1,1H23.1c-1.3,0-3.5-1-4.4-2L3.4,24.3c-0.5-0.5-0.5-1.5,0-2L18.7,5
		c0.9-1,3.1-2,4.4-2H102.4 M102.4,0H23.1c-2.2,0-5.2,1.3-6.7,3L1.1,20.3c-1.5,1.6-1.5,4.3,0,6l15.3,17.1c1.5,1.6,4.5,3,6.7,3h79.3
		c2.2,0,4-1.8,4-4V4C106.4,1.8,104.6,0,102.4,0L102.4,0z"/>
</g>
<circle fill="#FFFFFF" stroke="#000000" stroke-width="3" stroke-linecap="round" stroke-linejoin="round" stroke-miterlimit="10" cx="21.3" cy="23.3" r="4.7"/>
<line fill="none" stroke="#000000" stroke-width="3" stroke-linecap="round" stroke-linejoin="round" stroke-miterlimit="10" x1="40" y1="13.8" x2="82" y2="13.8"/>
<line fill="none" stroke="#000000" stroke-width="3" stroke-linecap="round" stroke-linejoin="round" stroke-miterlimit="10" x1="40" y1="24.8" x2="62" y2="24.8"/>
</svg>
